# xmcd
#
# Track frame offsets: 
#        150
#        18293
#        34025
#        55477
#        71724
#        92507
#        110217
#        125970
#        146832
#        164165
#        182538
#        203938
#
# Disc length: 2945 seconds
#
# Revision: 3
# Processed by: cddbd v1.5.2PL0 Copyright (c) Steve Scherf et al.
# Submitted via: ExactAudioCopy v0.99pb5
#
DISCID=ba0b7f0c
DTITLE=Ray Bonneville - Goin' by Feel
DYEAR=2007
DGENRE=Blues
TTITLE0=Crow John
TTITLE1=What Katy Did
TTITLE2=Sabine River
TTITLE3=Cemetery Road
TTITLE4=I Am the Big Easy
TTITLE5=So Long Blues
TTITLE6=Reckless Feeling
TTITLE7=Carry the Fallen
TTITLE8=Goin' by Feel
TTITLE9=Shy Star
TTITLE10=Run Jolee Run
TTITLE11=Cool Cool Rain
EXTD=YEAR: 2007
EXTT0=
EXTT1=
EXTT2=
EXTT3=
EXTT4=
EXTT5=
EXTT6=
EXTT7=
EXTT8=
EXTT9=
EXTT10=
EXTT11=
PLAYORDER=
